<?xml version="1.0" encoding="UTF-8" standalone="no"?>
<!-- Created with Inkscape (http://www.inkscape.org/) -->

<svg
   xmlns:dc="http://purl.org/dc/elements/1.1/"
   xmlns:cc="http://creativecommons.org/ns#"
   xmlns:rdf="http://www.w3.org/1999/02/22-rdf-syntax-ns#"
   xmlns:svg="http://www.w3.org/2000/svg"
   xmlns="http://www.w3.org/2000/svg"
   xmlns:sodipodi="http://sodipodi.sourceforge.net/DTD/sodipodi-0.dtd"
   xmlns:inkscape="http://www.inkscape.org/namespaces/inkscape"
   width="210mm"
   height="297mm"
   viewBox="0 0 744.09448819 1052.3622047"
   id="svg2"
   version="1.1"
   inkscape:version="0.91 r13725"
   sodipodi:docname="drawing.svg">
  <defs
     id="defs4" />
  <sodipodi:namedview
     id="base"
     pagecolor="#ffffff"
     bordercolor="#666666"
     borderopacity="1.0"
     inkscape:pageopacity="0.0"
     inkscape:pageshadow="2"
     inkscape:zoom="1.979899"
     inkscape:cx="401.10358"
     inkscape:cy="518.3393"
     inkscape:document-units="px"
     inkscape:current-layer="layer1"
     showgrid="false"
     showguides="false"
     inkscape:window-width="1920"
     inkscape:window-height="1138"
     inkscape:window-x="-8"
     inkscape:window-y="-8"
     inkscape:window-maximized="1">
    <sodipodi:guide
       position="406.25,644.28573"
       orientation="0,1"
       id="guide4193" />
  </sodipodi:namedview>
  <metadata
     id="metadata7">
    <rdf:RDF>
      <cc:Work
         rdf:about="">
        <dc:format>image/svg+xml</dc:format>
        <dc:type
           rdf:resource="http://purl.org/dc/dcmitype/StillImage" />
        <dc:title />
      </cc:Work>
    </rdf:RDF>
  </metadata>
  <g
     inkscape:label="Layer 1"
     inkscape:groupmode="layer"
     id="layer1">
    <rect
       style="fill:none"
       id="rect3411"
       width="271.15225"
       height="271.15225"
       x="448.04327"
       y="337.25546"
       inkscape:export-xdpi="84.970001"
       inkscape:export-ydpi="84.970001" />
    <g
       id="g3400">
      <path
         inkscape:export-ydpi="90"
         inkscape:export-xdpi="90"
         sodipodi:nodetypes="cssscccc"
         inkscape:connector-curvature="0"
         id="path3342"
         d="m 376.85644,539.54449 c 0.41892,5.59356 4.94167,11.23197 2.35997,19.26291 -1.56129,4.85674 -3.4717,7.33318 -5.71979,6.83988 -9.10487,-1.99789 -11.54072,-1.69199 -22.54686,-3.31403 -15.33802,-2.26046 -29.76388,-0.77172 -35.77131,6.45945 -21.2877,-3.39789 -67.67352,-8.85695 -70.31643,-33.34992 l -3.38852,-43.49469 z"
         style="fill:#666666;fill-opacity:1;fill-rule:evenodd;stroke:#000000;stroke-width:3;stroke-linecap:butt;stroke-linejoin:round;stroke-miterlimit:4;stroke-dasharray:none;stroke-opacity:1" />
      <path
         inkscape:export-ydpi="90"
         inkscape:export-xdpi="90"
         sodipodi:nodetypes="cccc"
         inkscape:connector-curvature="0"
         id="path3346"
         d="m 353.60411,539.53429 19.30237,-0.4533 c -0.84786,15.09874 -6.84062,24.02587 -14.52915,34.22586 1.24559,-11.32532 2.57498,-22.28776 -4.77322,-33.77256 z"
         style="fill:#ffffff;fill-rule:evenodd;stroke:#000000;stroke-width:3;stroke-linecap:butt;stroke-linejoin:miter;stroke-miterlimit:4;stroke-dasharray:none;stroke-opacity:1" />
      <path
         inkscape:export-ydpi="90"
         inkscape:export-xdpi="90"
         sodipodi:nodetypes="cccsczcc"
         inkscape:connector-curvature="0"
         id="path3340"
         d="m 240.086,496.30892 7.27398,-22.9572 64.12175,6.9152 c 26.27371,23.39593 42.32471,25.3127 57.47401,31.12752 1.83767,0.70535 10.35775,2.27208 15.44287,2.73544 0,0 0.0213,14.41966 -1.62947,18.89519 -1.65071,4.47553 -4.96629,8.16157 -4.96629,8.16157 -28.55833,16.88123 -52.11229,-12.29195 -80.19892,-6.57436"
         style="fill:#666666;fill-rule:evenodd;stroke:#000000;stroke-width:3;stroke-linecap:butt;stroke-linejoin:miter;stroke-miterlimit:4;stroke-dasharray:none;stroke-opacity:1" />
      <path
         inkscape:export-ydpi="90"
         inkscape:export-xdpi="90"
         sodipodi:nodetypes="cccc"
         inkscape:connector-curvature="0"
         id="path3336"
         d="m 367.5933,517.78982 c 7.62091,-4.54005 11.16924,-6.38336 21.38498,-3.53613 1.9264,8.63688 -0.98084,15.63254 -8.38532,22.94378 -7.17479,-8.35449 -12.43293,-11.91514 -12.99966,-19.40765 z"
         style="fill:#000000;fill-rule:evenodd;stroke:#000000;stroke-width:1px;stroke-linecap:butt;stroke-linejoin:miter;stroke-opacity:1" />
      <path
         inkscape:export-ydpi="90"
         inkscape:export-xdpi="90"
         sodipodi:nodetypes="ccccccccccccccccc"
         inkscape:connector-curvature="0"
         id="path3344"
         d="m 346.08839,479.24672 c -18.74576,2.00375 -31.41339,-4.26658 -43.73817,-10.00264 4.39222,-9.43553 15.78834,-15.17893 32.22002,-15.52492 -8.73095,-17.08212 -51.3182,-14.86403 -57.87889,-3.91862 3.87413,-24.4076 -35.82532,-39.36834 -67.94148,-37.97621 16.98083,11.53322 34.88536,21.92996 24.82826,35.05099 -18.05995,-12.56652 -49.33222,-11.90107 -62.71782,7.45088 3.29904,-4.44046 30.21095,1.78671 30.70272,21.46817 -10.43311,-1.74049 -41.82847,19.70875 -48.92425,52.05501 11.54441,-3.89187 26.51513,-14.82189 41.14078,-7.68426 -12.04956,13.53312 -20.80032,35.4987 4.55619,51.08731 -1.20267,-13.86788 5.77165,-30.78324 20.77038,-35.8426 -4.89393,22.32534 31.58171,49.56801 71.14819,40.66121 -31.54148,-22.61537 -32.1131,-29.9067 -39.34382,-65.8225 7.15114,11.43327 18.63376,19.13045 29.74552,20.37418 -8.8094,-13.0062 -9.07155,-31.46094 -5.67114,-46.14121 22.9211,9.22679 51.39291,0.33289 71.10351,-5.23479 z"
         style="fill:#000000;fill-rule:evenodd;stroke:#000000;stroke-width:1px;stroke-linecap:butt;stroke-linejoin:miter;stroke-opacity:1" />
      <g
         inkscape:export-ydpi="90"
         inkscape:export-xdpi="90"
         transform="matrix(1.0134017,0,0,1.1256159,-35.243745,5.7340554)"
         id="g4229">
        <path
           style="fill:#ffff00;fill-rule:evenodd;stroke:#000000;stroke-width:2.80889344;stroke-linecap:butt;stroke-linejoin:miter;stroke-miterlimit:4;stroke-dasharray:none;stroke-opacity:1"
           d="m 315.83032,436.78494 c 0.51331,-0.15331 29.60722,-0.0837 29.60722,-0.0837 1.79726,-0.0725 -1.21056,9.50571 -1.45019,11.056 -0.71467,4.62366 -21.86352,8.17948 -22.68549,4.5392 -3.67972,-4.29143 -4.84253,-9.82432 -5.47154,-15.51148 z"
           id="path4218"
           inkscape:connector-curvature="0"
           sodipodi:nodetypes="ccscc" />
        <path
           style="fill:#000000;fill-rule:evenodd;stroke:none;stroke-width:1px;stroke-linecap:butt;stroke-linejoin:miter;stroke-opacity:1"
           d="m 311.97205,439.52632 0.98494,-4.95025 37.7919,-0.70625 -0.84069,5.49626 z"
           id="path4220"
           inkscape:connector-curvature="0" />
        <path
           inkscape:connector-curvature="0"
           style="opacity:1;fill:#000000;fill-opacity:1;stroke:none;stroke-width:3;stroke-linecap:round;stroke-linejoin:round;stroke-miterlimit:4;stroke-dasharray:none;stroke-dashoffset:0;stroke-opacity:1"
           d="m 330.57422,436.68555 a 7.1428571,10.178572 0 0 0 -3.25195,8.5332 7.1428571,10.178572 0 0 0 2.99218,8.27344 c 3.54023,-0.4579 7.37794,-1.40687 10.09375,-2.63867 a 7.1428571,10.178572 0 0 0 1.19922,-5.63477 7.1428571,10.178572 0 0 0 -3.25195,-8.52539 c -2.82705,-0.004 -3.90882,-0.009 -7.78125,-0.008 z"
           id="path4222" />
      </g>
    </g>
    <rect
       style="opacity:1;fill:none;fill-opacity:1;stroke:none;stroke-width:3;stroke-linecap:round;stroke-linejoin:round;stroke-miterlimit:4;stroke-dasharray:none;stroke-dashoffset:0;stroke-opacity:1"
       id="rect4234"
       width="256"
       height="256"
       x="146.42857"
       y="372.79077"
       ry="0.61663485"
       inkscape:export-xdpi="90"
       inkscape:export-ydpi="90" />
    <g
       id="g3371"
       transform="translate(-1.0101525,-0.50507627)">
      <path
         sodipodi:nodetypes="ccccc"
         inkscape:connector-curvature="0"
         id="path4160"
         d="m 474.38981,553.1767 c 35.24187,1.72926 56.06162,9.53363 81.88919,-49.25364 l -18.64705,-45.37533 -62.64296,11.92423 c -8.91357,23.17733 -11.89203,49.34537 -0.59918,82.70474 z"
         style="fill:#b3b3b3;fill-rule:evenodd;stroke:#000000;stroke-width:3;stroke-linecap:butt;stroke-linejoin:miter;stroke-miterlimit:4;stroke-dasharray:none;stroke-opacity:1" />
      <path
         sodipodi:nodetypes="csccc"
         inkscape:connector-curvature="0"
         id="path4162"
         d="m 627.89412,456.03332 c 0,0 74.57261,3.69753 78.24037,8.92857 3.66777,5.23104 -5.95225,86.10198 -5.95225,86.10198 -52.69501,16.53015 -60.10709,-17.28631 -90.16063,-25.92946 z"
         style="fill:#b3b3b3;fill-rule:evenodd;stroke:#000000;stroke-width:3;stroke-linecap:butt;stroke-linejoin:miter;stroke-miterlimit:4;stroke-dasharray:none;stroke-opacity:1" />
      <path
         sodipodi:nodetypes="ccsssc"
         inkscape:connector-curvature="0"
         id="path4158"
         d="m 633.89182,462.36167 -2.29991,-13.0175 c 0,0 67.79385,-0.59373 74.79809,7.63585 14.74924,17.32951 -0.31114,95.59892 -6.07066,94.77475 -5.38712,-0.77089 3.11948,-74.79712 -4.5417,-78.75085 -20.61153,-10.63706 -61.88582,-10.64225 -61.88582,-10.64225 z"
         style="fill:#666666;fill-rule:evenodd;stroke:#000000;stroke-width:3;stroke-linecap:butt;stroke-linejoin:miter;stroke-miterlimit:4;stroke-dasharray:none;stroke-opacity:1" />
      <path
         sodipodi:nodetypes="cssscc"
         inkscape:connector-curvature="0"
         id="path4156"
         d="m 527.9399,448.8354 c 0,0 -53.79506,-2.35071 -64.53853,14.28864 -14.31446,22.17006 5.83198,90.96136 11.81565,91.03952 9.38952,0.12265 -12.45301,-58.26555 8.28521,-78.16112 14.19306,-13.61636 57.43855,-13.50726 57.43855,-13.50726 z"
         style="fill:#666666;fill-rule:evenodd;stroke:#000000;stroke-width:3;stroke-linecap:butt;stroke-linejoin:miter;stroke-miterlimit:4;stroke-dasharray:none;stroke-opacity:1" />
      <path
         sodipodi:nodetypes="sssss"
         inkscape:connector-curvature="0"
         id="path4152"
         d="m 521.42856,458.79078 c 13.84658,-41.44643 117.92626,-45.38859 125.35715,-2.5 7.05447,40.71599 8.71381,76.00368 -33.04096,100.04332 -13.67914,7.87554 -49.6041,6.50095 -63.03789,-1.97698 -33.23822,-20.97631 -34.92067,-78.67726 -29.2783,-95.56634 z"
         style="fill:#999999;fill-rule:evenodd;stroke:#000000;stroke-width:3;stroke-linecap:butt;stroke-linejoin:miter;stroke-miterlimit:4;stroke-dasharray:none;stroke-opacity:1" />
      <path
         style="fill:#ffffff;fill-rule:evenodd;stroke:#000000;stroke-width:3;stroke-linecap:butt;stroke-linejoin:miter;stroke-miterlimit:4;stroke-dasharray:none;stroke-opacity:1"
         d="m 606.21159,521.30563 c 11.29498,6.94262 27.44613,4.52733 26.31852,-11.21246 10.39987,7.45004 2.52752,35.39129 -26.44444,25.36135 -3.28971,-3.3587 -7.89195,-10.21771 0.12592,-14.14889 z"
         id="path4188"
         inkscape:connector-curvature="0"
         sodipodi:nodetypes="cccc" />
      <g
         transform="matrix(0.96491583,-0.2625594,0.2625594,0.96491583,-118.10348,189.33636)"
         id="g4238">
        <path
           style="opacity:1;fill:#550000;fill-opacity:1;stroke:#000000;stroke-width:2.99999976;stroke-linecap:round;stroke-linejoin:round;stroke-miterlimit:4;stroke-dasharray:none;stroke-dashoffset:0;stroke-opacity:1"
           d="m 711.33302,516.68205 c 1.27635,5.12253 -12.50771,8.45069 -29.43053,11.33715 -16.9228,2.88647 -30.57604,4.23819 -31.85239,-0.88433 -1.27634,-5.12252 11.07464,-7.9484 27.99745,-10.83487 16.92282,-2.88646 32.00913,-4.74047 33.28547,0.38205 z"
           id="path4228"
           inkscape:connector-curvature="0"
           sodipodi:nodetypes="sssss" />
        <path
           style="fill:#b3b3b3;fill-rule:evenodd;stroke:#000000;stroke-width:3;stroke-linecap:butt;stroke-linejoin:miter;stroke-miterlimit:4;stroke-dasharray:none;stroke-opacity:1"
           d="m 697.00526,514.20343 c 2.51165,-1.70591 14.43538,-2.8573 14.2684,2.39912 -0.16398,5.16208 -7.33055,5.30333 -11.99556,7.57614 z"
           id="path4235"
           inkscape:connector-curvature="0"
           sodipodi:nodetypes="cscc" />
        <path
           style="fill:none;fill-rule:evenodd;stroke:#000000;stroke-width:3;stroke-linecap:butt;stroke-linejoin:miter;stroke-miterlimit:4;stroke-dasharray:none;stroke-opacity:1"
           d="m 706.56146,513.46652 1.46945,7.53473"
           id="path4231"
           inkscape:connector-curvature="0"
           sodipodi:nodetypes="cc" />
        <path
           style="fill:none;fill-rule:evenodd;stroke:#000000;stroke-width:3;stroke-linecap:butt;stroke-linejoin:miter;stroke-miterlimit:4;stroke-dasharray:none;stroke-opacity:1"
           d="m 701.67721,513.44582 2.14658,8.83884"
           id="path4233"
           inkscape:connector-curvature="0"
           sodipodi:nodetypes="cc" />
      </g>
      <path
         sodipodi:nodetypes="cssssssssssc"
         inkscape:connector-curvature="0"
         id="path4154"
         d="m 574.58901,522.14556 c 0,0 22.77937,-14.76904 37.13542,2.06363 5.41332,6.3472 18.9582,35.46418 24.70414,35.29588 14.54681,-0.42607 25.51548,-23.2336 28.72814,-35.18446 0.9034,-3.3606 -2.76198,-7.00813 -2.30482,-10.5097 0.45156,-3.45877 5.93955,-4.26633 8.06327,-2.35109 2.76955,2.49766 2.83524,2.96197 5.60994,2.71741 2.00487,-0.17671 5.28344,-2.92398 6.87862,-4.03335 1.80377,-1.25442 6.92193,0.54722 6.77966,4.05572 -0.22247,5.48615 -6.80424,7.19967 -7.66726,9.06043 -8.20311,17.68663 -19.26976,53.0192 -44.48041,53.3879 -35.24453,0.51545 -40.506,-29.80961 -59.10714,-27.14285"
         style="fill:#999999;fill-rule:evenodd;stroke:#000000;stroke-width:3;stroke-linecap:butt;stroke-linejoin:round;stroke-miterlimit:4;stroke-dasharray:none;stroke-opacity:1" />
      <path
         sodipodi:nodetypes="cccc"
         inkscape:connector-curvature="0"
         id="path4164"
         d="m 567.26573,523.23153 c -10.88628,7.5674 -27.14777,6.06505 -26.90791,-9.71325 -12.74058,4.06383 -0.18994,35.45819 27.83005,23.83263 3.09544,-3.53856 7.3043,-10.64574 -0.92214,-14.11938 z"
         style="fill:#ffffff;fill-rule:evenodd;stroke:#000000;stroke-width:3;stroke-linecap:butt;stroke-linejoin:miter;stroke-miterlimit:4;stroke-dasharray:none;stroke-opacity:1" />
      <ellipse
         transform="matrix(0.99046498,-0.13776475,0.13776475,0.99046498,0,0)"
         ry="22.475893"
         rx="70.331871"
         cy="518.44562"
         cx="513.68085"
         id="path4192"
         style="opacity:1;fill:#000000;fill-opacity:1;stroke:none;stroke-width:3;stroke-linecap:round;stroke-linejoin:round;stroke-miterlimit:4;stroke-dasharray:none;stroke-dashoffset:0;stroke-opacity:1" />
      <g
         id="g4211">
        <ellipse
           style="opacity:1;fill:#ffd42a;fill-opacity:1;stroke:#000000;stroke-width:3.00000024;stroke-linecap:round;stroke-linejoin:round;stroke-miterlimit:4;stroke-dasharray:none;stroke-dashoffset:0;stroke-opacity:1"
           id="path4168"
           cx="559.11945"
           cy="492.67041"
           rx="18.687822"
           ry="17.744967" />
        <ellipse
           ry="11.293605"
           rx="11.92233"
           cy="492.67041"
           cx="559.11945"
           id="ellipse4170"
           style="opacity:1;fill:#00ffff;fill-opacity:1;stroke:#000000;stroke-width:3.00000024;stroke-linecap:round;stroke-linejoin:round;stroke-miterlimit:4;stroke-dasharray:none;stroke-dashoffset:0;stroke-opacity:1" />
        <path
           sodipodi:nodetypes="ccscc"
           inkscape:connector-curvature="0"
           id="path4184"
           d="m 575.40872,463.06447 c -0.4203,8.52922 -19.83101,10.83208 -40.4061,12.75317 0,0 2.44653,8.99799 5.05076,8.58629 34.34519,-5.42957 36.61803,-11.61675 36.61803,-11.61675 z"
           style="fill:#000000;fill-rule:evenodd;stroke:#000000;stroke-width:1px;stroke-linecap:butt;stroke-linejoin:miter;stroke-opacity:1" />
        <g
           id="g4206">
          <path
             sodipodi:nodetypes="csscc"
             inkscape:connector-curvature="0"
             id="path4182"
             d="m 599.27299,476.32271 c 0,0 -4.33568,14.81129 0.12627,20.96067 5.34858,7.37132 14.99464,8.47668 22.47589,3.283 6.00805,-4.17095 5.17704,-19.1929 5.17704,-19.1929 -8.62881,-3.03057 -19.57268,-0.94751 -27.7792,-5.05077 z"
             style="fill:#ffffff;fill-rule:evenodd;stroke:#000000;stroke-width:3;stroke-linecap:butt;stroke-linejoin:miter;stroke-miterlimit:4;stroke-dasharray:none;stroke-opacity:1" />
          <path
             sodipodi:nodetypes="ccscc"
             inkscape:connector-curvature="0"
             id="path4180"
             d="m 594.47477,467.10508 c 0.4203,8.52922 19.83101,10.83208 40.4061,12.75317 0,0 -2.44653,8.99799 -5.05076,8.58629 -34.34519,-5.42957 -36.61803,-11.61675 -36.61803,-11.61675 z"
             style="fill:#000000;fill-rule:evenodd;stroke:#000000;stroke-width:1px;stroke-linecap:butt;stroke-linejoin:miter;stroke-opacity:1" />
          <ellipse
             transform="matrix(0.98876631,0.14946967,-0.14946967,0.98876631,0,0)"
             ry="7.3214288"
             rx="4.4451532"
             cy="391.92554"
             cx="682.32898"
             id="path4190"
             style="opacity:1;fill:#000000;fill-opacity:1;stroke:none;stroke-width:3;stroke-linecap:round;stroke-linejoin:round;stroke-miterlimit:4;stroke-dasharray:none;stroke-dashoffset:0;stroke-opacity:1" />
        </g>
        <path
           style="fill:none;fill-rule:evenodd;stroke:#ffffff;stroke-width:3;stroke-linecap:butt;stroke-linejoin:miter;stroke-miterlimit:4;stroke-dasharray:none;stroke-opacity:1"
           d="m 565.34989,485.73898 -14.98546,11.46074"
           id="path4202"
           inkscape:connector-curvature="0" />
        <path
           inkscape:connector-curvature="0"
           id="path4204"
           d="m 567.66393,489.48423 -13.89928,10.93453"
           style="fill:none;fill-rule:evenodd;stroke:#ffffff;stroke-width:3;stroke-linecap:butt;stroke-linejoin:miter;stroke-miterlimit:4;stroke-dasharray:none;stroke-opacity:1" />
      </g>
      <ellipse
         style="opacity:1;fill:#000000;fill-opacity:1;stroke:none;stroke-width:3;stroke-linecap:round;stroke-linejoin:round;stroke-miterlimit:4;stroke-dasharray:none;stroke-dashoffset:0;stroke-opacity:1"
         id="ellipse4222"
         cx="513.68085"
         cy="518.44562"
         rx="44.467194"
         ry="14.210341"
         transform="matrix(0.99046498,-0.13776475,0.13776475,0.99046498,0,0)" />
      <path
         sodipodi:nodetypes="ccccc"
         inkscape:connector-curvature="0"
         id="path4194"
         d="m 540.68415,436.67423 c 1.98898,-14.2651 -8.08447,-29.28411 -16.41498,-44.19418 35.06701,-2.8327 61.64934,-7.71658 94.7018,-19.95051 6.56417,20.53978 7.04986,40.827 2.27285,65.40738 -28.43564,3.93076 -57.61896,9.91761 -80.55967,-1.26269 z"
         style="fill:#000000;fill-rule:evenodd;stroke:#000000;stroke-width:1px;stroke-linecap:butt;stroke-linejoin:miter;stroke-opacity:1" />
      <path
         sodipodi:nodetypes="ccccc"
         inkscape:connector-curvature="0"
         id="path4226"
         d="m 540.53572,433.61221 c 0.8331,3.15499 0.39452,7.58165 -0.17858,12.14285 18.29035,7.53702 39.7055,11.70416 81.96429,-6.60714 0.69236,-4.01002 1.48212,-9.17264 1.25,-14.10715 -28.25812,13.91519 -57.15787,16.55478 -83.03571,8.57144 z"
         style="fill:#ff0000;fill-rule:evenodd;stroke:#000000;stroke-width:1px;stroke-linecap:butt;stroke-linejoin:miter;stroke-opacity:1" />
    </g>
  </g>
</svg>
