<?xml version="1.0" encoding="UTF-8" standalone="no"?>
<!-- Created with Inkscape (http://www.inkscape.org/) -->

<svg
   xmlns:dc="http://purl.org/dc/elements/1.1/"
   xmlns:cc="http://creativecommons.org/ns#"
   xmlns:rdf="http://www.w3.org/1999/02/22-rdf-syntax-ns#"
   xmlns:svg="http://www.w3.org/2000/svg"
   xmlns="http://www.w3.org/2000/svg"
   xmlns:sodipodi="http://sodipodi.sourceforge.net/DTD/sodipodi-0.dtd"
   xmlns:inkscape="http://www.inkscape.org/namespaces/inkscape"
   width="210mm"
   height="297mm"
   viewBox="0 0 744.09448819 1052.3622047"
   id="svg2"
   version="1.1"
   inkscape:version="0.91 r"
   sodipodi:docname="drawing.svg">
  <defs
     id="defs4" />
  <sodipodi:namedview
     id="base"
     pagecolor="#ffffff"
     bordercolor="#666666"
     borderopacity="1.0"
     inkscape:pageopacity="0.0"
     inkscape:pageshadow="2"
     inkscape:zoom="1.4"
     inkscape:cx="367.51562"
     inkscape:cy="560.89908"
     inkscape:document-units="px"
     inkscape:current-layer="layer1"
     showgrid="false"
     showguides="false"
     inkscape:window-width="1366"
     inkscape:window-height="719"
     inkscape:window-x="0"
     inkscape:window-y="0"
     inkscape:window-maximized="1">
    <sodipodi:guide
       position="406.25,644.28573"
       orientation="0,1"
       id="guide4193" />
  </sodipodi:namedview>
  <metadata
     id="metadata7">
    <rdf:RDF>
      <cc:Work
         rdf:about="">
        <dc:format>image/svg+xml</dc:format>
        <dc:type
           rdf:resource="http://purl.org/dc/dcmitype/StillImage" />
        <dc:title></dc:title>
      </cc:Work>
    </rdf:RDF>
  </metadata>
  <g
     inkscape:label="Layer 1"
     inkscape:groupmode="layer"
     id="layer1">
    <path
       style="fill:#666666;fill-opacity:1;fill-rule:evenodd;stroke:#000000;stroke-width:3;stroke-linecap:butt;stroke-linejoin:miter;stroke-miterlimit:4;stroke-dasharray:none;stroke-opacity:1"
       d="m 376.85644,539.54449 5.74732,32.70994 c -21.95408,-11.36138 -57.10712,-15.88178 -67.42531,-3.46173 -21.2877,-3.39789 -67.67352,-8.85695 -70.31643,-33.34992 l -3.38852,-43.49469 z"
       id="path3342"
       inkscape:connector-curvature="0"
       sodipodi:nodetypes="cccccc"
       inkscape:export-xdpi="90"
       inkscape:export-ydpi="90" />
    <path
       style="fill:#ffffff;fill-rule:evenodd;stroke:#000000;stroke-width:3;stroke-linecap:butt;stroke-linejoin:miter;stroke-miterlimit:4;stroke-dasharray:none;stroke-opacity:1"
       d="m 353.60411,539.53429 19.30237,-0.4533 c -0.84786,15.09874 -6.84062,24.02587 -14.52915,34.22586 1.24559,-11.32532 2.57498,-22.28776 -4.77322,-33.77256 z"
       id="path3346"
       inkscape:connector-curvature="0"
       sodipodi:nodetypes="cccc"
       inkscape:export-xdpi="90"
       inkscape:export-ydpi="90" />
    <path
       style="fill:#666666;fill-rule:evenodd;stroke:#000000;stroke-width:3;stroke-linecap:butt;stroke-linejoin:miter;stroke-miterlimit:4;stroke-dasharray:none;stroke-opacity:1"
       d="m 240.086,496.30892 7.27398,-22.9572 64.12175,6.9152 c 26.27371,23.39593 42.32471,25.3127 57.47401,31.12752 1.83767,0.70535 10.35775,2.27208 15.44287,2.73544 0,0 0.0213,14.41966 -1.62947,18.89519 -1.65071,4.47553 -4.96629,8.16157 -4.96629,8.16157 -28.55833,16.88123 -52.11229,-12.29195 -80.19892,-6.57436"
       id="path3340"
       inkscape:connector-curvature="0"
       sodipodi:nodetypes="cccsczcc"
       inkscape:export-xdpi="90"
       inkscape:export-ydpi="90" />
    <path
       style="fill:#000000;fill-rule:evenodd;stroke:#000000;stroke-width:1px;stroke-linecap:butt;stroke-linejoin:miter;stroke-opacity:1"
       d="m 367.5933,517.78982 c 7.62091,-4.54005 11.16924,-6.38336 21.38498,-3.53613 1.9264,8.63688 -0.98084,15.63254 -8.38532,22.94378 -7.17479,-8.35449 -12.43293,-11.91514 -12.99966,-19.40765 z"
       id="path3336"
       inkscape:connector-curvature="0"
       sodipodi:nodetypes="cccc"
       inkscape:export-xdpi="90"
       inkscape:export-ydpi="90" />
    <path
       style="fill:#000000;fill-rule:evenodd;stroke:#000000;stroke-width:1px;stroke-linecap:butt;stroke-linejoin:miter;stroke-opacity:1"
       d="m 346.08839,479.24672 c -18.74576,2.00375 -31.41339,-4.26658 -43.73817,-10.00264 4.39222,-9.43553 15.78834,-15.17893 32.22002,-15.52492 -8.73095,-17.08212 -51.3182,-14.86403 -57.87889,-3.91862 3.87413,-24.4076 -35.82532,-39.36834 -67.94148,-37.97621 16.98083,11.53322 34.88536,21.92996 24.82826,35.05099 -18.05995,-12.56652 -49.33222,-11.90107 -62.71782,7.45088 3.29904,-4.44046 30.21095,1.78671 30.70272,21.46817 -10.43311,-1.74049 -41.82847,19.70875 -48.92425,52.05501 11.54441,-3.89187 26.51513,-14.82189 41.14078,-7.68426 -12.04956,13.53312 -20.80032,35.4987 4.55619,51.08731 -1.20267,-13.86788 5.77165,-30.78324 20.77038,-35.8426 -4.89393,22.32534 31.58171,49.56801 71.14819,40.66121 -31.54148,-22.61537 -32.1131,-29.9067 -39.34382,-65.8225 7.15114,11.43327 18.63376,19.13045 29.74552,20.37418 -8.8094,-13.0062 -9.07155,-31.46094 -5.67114,-46.14121 22.9211,9.22679 51.39291,0.33289 71.10351,-5.23479 z"
       id="path3344"
       inkscape:connector-curvature="0"
       sodipodi:nodetypes="ccccccccccccccccc"
       inkscape:export-xdpi="90"
       inkscape:export-ydpi="90" />
    <g
       id="g4229"
       transform="matrix(1.0134017,0,0,1.1256159,-35.243745,5.7340554)"
       inkscape:export-xdpi="90"
       inkscape:export-ydpi="90">
      <path
         sodipodi:nodetypes="ccscc"
         inkscape:connector-curvature="0"
         id="path4218"
         d="m 315.83032,436.78494 c 0.51331,-0.15331 29.60722,-0.0837 29.60722,-0.0837 1.79726,-0.0725 -1.21056,9.50571 -1.45019,11.056 -0.71467,4.62366 -21.86352,8.17948 -22.68549,4.5392 -3.67972,-4.29143 -4.84253,-9.82432 -5.47154,-15.51148 z"
         style="fill:#ffff00;fill-rule:evenodd;stroke:#000000;stroke-width:2.80889344;stroke-linecap:butt;stroke-linejoin:miter;stroke-miterlimit:4;stroke-dasharray:none;stroke-opacity:1" />
      <path
         inkscape:connector-curvature="0"
         id="path4220"
         d="m 311.97205,439.52632 0.98494,-4.95025 37.7919,-0.70625 -0.84069,5.49626 z"
         style="fill:#000000;fill-rule:evenodd;stroke:none;stroke-width:1px;stroke-linecap:butt;stroke-linejoin:miter;stroke-opacity:1" />
      <path
         id="path4222"
         d="m 330.57422,436.68555 a 7.1428571,10.178572 0 0 0 -3.25195,8.5332 7.1428571,10.178572 0 0 0 2.99218,8.27344 c 3.54023,-0.4579 7.37794,-1.40687 10.09375,-2.63867 a 7.1428571,10.178572 0 0 0 1.19922,-5.63477 7.1428571,10.178572 0 0 0 -3.25195,-8.52539 c -2.82705,-0.004 -3.90882,-0.009 -7.78125,-0.008 z"
         style="opacity:1;fill:#000000;fill-opacity:1;stroke:none;stroke-width:3;stroke-linecap:round;stroke-linejoin:round;stroke-miterlimit:4;stroke-dasharray:none;stroke-dashoffset:0;stroke-opacity:1"
         inkscape:connector-curvature="0" />
    </g>
    <rect
       style="opacity:1;fill:none;fill-opacity:1;stroke:none;stroke-width:3;stroke-linecap:round;stroke-linejoin:round;stroke-miterlimit:4;stroke-dasharray:none;stroke-dashoffset:0;stroke-opacity:1"
       id="rect4234"
       width="256"
       height="256"
       x="146.42857"
       y="372.79077"
       ry="0.61663485"
       inkscape:export-xdpi="90"
       inkscape:export-ydpi="90" />
  </g>
</svg>
